<?xml version="1.0" standalone="no"?>
<!DOCTYPE svg PUBLIC "-//W3C//DTD SVG 20010904//EN"
 "http://www.w3.org/TR/2001/REC-SVG-20010904/DTD/svg10.dtd">
<svg version="1.0" xmlns="http://www.w3.org/2000/svg"
 width="1080.000000pt" height="1080.000000pt" viewBox="0 0 1080.000000 1080.000000"
 preserveAspectRatio="xMidYMid meet">
<metadata>
Created by potrace 1.14, written by Peter Selinger 2001-2017
</metadata>
<g transform="translate(0.000000,1080.000000) scale(0.100000,-0.100000)"
fill="#000000" stroke="none">
<path d="M0 5400 l0 -5400 5400 0 5400 0 0 5400 0 5400 -5400 0 -5400 0 0
-5400z m3280 2160 c0 -13 -7 -20 -20 -20 -23 0 -26 10 -8 28 18 18 28 15 28
-8z m190 -10 c0 -5 -7 -10 -15 -10 -8 0 -15 5 -15 10 0 6 7 10 15 10 8 0 15
-4 15 -10z m-141 -22 c10 -6 16 -19 14 -28 -4 -14 4 -18 41 -22 24 -3 52 -13
62 -22 10 -10 23 -14 33 -10 43 18 62 17 68 -5 3 -12 13 -21 24 -21 22 0 34
16 17 23 -7 3 -3 6 9 6 12 1 34 7 49 13 22 10 28 10 32 0 2 -6 14 -12 27 -12
12 0 26 -7 29 -16 5 -14 16 -16 56 -11 29 4 50 2 50 -4 0 -8 25 -10 128 -9 34
1 40 -8 20 -28 -10 -10 -10 -15 2 -22 16 -10 30 4 30 33 0 12 8 17 30 17 17 0
30 -5 30 -11 0 -7 11 -9 29 -6 15 3 33 1 40 -6 8 -8 11 -8 11 0 0 16 48 23 94
15 32 -6 40 -12 41 -30 1 -13 -7 -34 -17 -47 -12 -15 -15 -26 -8 -30 6 -4 8
-11 5 -16 -10 -16 23 -10 40 7 9 10 56 25 103 36 125 27 117 28 120 -14 2 -29
0 -38 -13 -38 -8 0 -20 11 -25 25 l-10 26 -22 -21 c-12 -11 -28 -20 -35 -20
-7 0 -13 -7 -13 -15 0 -8 7 -15 15 -15 21 0 19 -20 -7 -47 -29 -31 -97 -33
-116 -3 -14 22 -41 27 -46 8 -17 -55 -16 -68 11 -92 23 -21 34 -25 66 -19 31
5 42 1 62 -17 22 -20 27 -21 54 -10 37 15 58 8 72 -24 10 -21 7 -29 -15 -59
-23 -29 -26 -42 -20 -71 6 -34 5 -36 -25 -42 -33 -7 -41 -21 -16 -30 8 -4 15
-10 15 -15 0 -18 -88 -102 -99 -95 -6 4 -9 11 -6 16 3 5 -3 18 -14 29 -18 18
-18 21 -3 66 14 44 14 48 -1 57 -10 5 -17 17 -17 27 0 11 -8 29 -18 41 -16 20
-21 21 -41 11 -43 -24 -80 -148 -49 -167 6 -4 19 2 29 14 23 29 46 28 52 -3 6
-34 -11 -42 -96 -44 -37 0 -75 -6 -85 -12 -14 -9 -31 -8 -68 1 -27 7 -64 12
-81 12 -18 -1 -43 -1 -55 -1 -13 0 -40 0 -60 0 -20 0 -40 4 -43 9 -3 6 -20 10
-36 10 -17 0 -39 4 -49 10 -13 7 -21 6 -30 -5 -15 -18 -169 -10 -222 12 -37
16 -44 30 -38 73 2 15 -24 -11 -59 -59 -14 -19 -21 -22 -37 -13 -11 5 -31 8
-46 5 -16 -3 -50 4 -83 18 -45 18 -55 27 -55 46 0 14 -4 21 -10 18 -5 -3 -10
-12 -10 -20 0 -8 -11 -26 -25 -40 -21 -20 -36 -25 -75 -25 -27 0 -52 -4 -55
-10 -10 -16 -131 -12 -145 5 -7 9 -28 14 -55 13 -24 0 -47 2 -52 5 -6 4 -29
-12 -52 -33 -24 -22 -45 -40 -48 -40 -9 0 9 82 28 125 10 23 24 65 30 93 6 29
15 52 20 52 6 0 7 5 4 10 -16 26 18 40 94 40 70 0 79 2 99 25 26 30 27 35 7
35 -8 0 -15 9 -15 19 0 11 -4 23 -10 26 -20 12 -9 32 35 63 25 18 49 32 54 32
5 0 14 7 21 15 7 8 26 15 42 15 16 0 31 6 34 15 4 8 11 15 18 15 6 0 34 11 61
25 28 13 65 25 83 25 38 0 55 26 29 45 -15 11 -15 13 1 29 16 16 16 18 -8 36
-25 20 -25 20 -2 20 12 0 22 5 22 10 0 13 26 13 49 -2z m1308 -260 c-3 -8 -6
-5 -6 6 -1 11 2 17 5 13 3 -3 4 -12 1 -19z m-52 -65 c-14 -15 -25 -36 -25 -46
0 -30 -35 -16 -38 16 -3 21 1 27 15 27 11 0 28 7 39 15 31 24 37 17 9 -12z
m117 -5 c8 -7 18 -21 22 -31 5 -16 1 -18 -27 -15 -27 2 -33 8 -35 31 -4 30 13
36 40 15z m108 -152 c0 -46 18 -78 43 -75 26 3 135 -19 157 -32 9 -5 10 -9 3
-9 -7 0 -21 -10 -33 -22 -18 -20 -19 -23 -3 -40 9 -10 24 -18 34 -18 34 0 29
-121 -9 -188 -12 -21 -15 -22 -30 -9 -12 11 -33 14 -74 11 -66 -5 -74 7 -38
53 21 27 27 78 10 88 -6 4 -10 25 -8 47 2 34 -2 44 -25 60 -15 11 -27 24 -27
30 0 6 -7 16 -17 23 -13 9 -22 9 -46 -3 -26 -13 -28 -18 -22 -46 20 -98 23
-132 10 -161 -6 -16 -17 -42 -23 -57 -14 -35 -42 -36 -97 -4 l-40 23 0 152 c0
134 2 152 17 157 10 3 26 0 37 -6 21 -11 139 -9 158 3 6 4 9 16 6 27 -3 11 0
20 6 20 6 0 11 -11 11 -24z m290 -142 c0 -9 -5 -14 -12 -12 -18 6 -21 28 -4
28 9 0 16 -7 16 -16z m94 -28 c-3 -14 -3 -34 1 -45 5 -17 10 -19 25 -11 10 6
21 10 24 10 10 0 7 -100 -4 -119 -6 -12 -5 -29 2 -49 9 -24 9 -34 -1 -46 -20
-24 -44 -21 -36 4 4 13 2 20 -5 18 -7 -2 -15 3 -17 10 -3 6 0 12 6 12 6 0 11
6 11 14 0 8 4 16 9 18 5 2 5 13 0 27 -8 19 -12 21 -24 11 -8 -7 -15 -18 -15
-25 0 -7 -10 -25 -22 -41 -13 -16 -21 -31 -19 -34 6 -8 -41 -29 -54 -23 -14 5
-25 62 -26 133 -2 92 0 102 21 107 11 3 20 10 20 17 0 16 39 33 78 35 30 1 32
-1 26 -23z m-2656 -13 c-4 -22 -22 -20 -26 1 -2 10 3 16 13 16 10 0 15 -7 13
-17z m-57 -50 c-10 -17 -10 -16 -11 3 0 23 13 41 18 25 2 -6 -1 -18 -7 -28z
m68 -25 c-7 -13 -14 -17 -20 -11 -14 14 0 43 17 36 10 -4 11 -10 3 -25z m2006
-369 c4 -13 -2 -30 -19 -49 -13 -16 -27 -39 -31 -50 -3 -11 -11 -20 -16 -20
-5 0 -9 -4 -9 -10 0 -12 -98 -144 -111 -148 -5 -2 -9 -12 -9 -22 0 -10 -11
-31 -23 -47 -78 -94 -145 -293 -173 -515 -7 -58 -2 -67 65 -117 l54 -40 -2
-98 c-3 -181 19 -309 74 -428 8 -16 21 -59 29 -95 28 -125 57 -263 61 -295 10
-77 20 -194 36 -425 15 -223 23 -277 53 -353 19 -50 24 -73 16 -86 -5 -10 -7
-21 -4 -24 3 -3 2 -20 -1 -39 -9 -47 -48 -64 -143 -61 -73 2 -107 13 -130 42
-28 35 -53 94 -66 155 -7 35 -29 90 -48 122 -85 143 -178 325 -178 349 0 9 17
13 55 14 31 0 60 3 65 6 6 3 10 1 10 -4 0 -6 -7 -11 -15 -11 -17 0 -20 -16 -5
-25 6 -4 18 -1 27 7 9 7 19 11 22 8 11 -9 12 143 1 154 -7 7 -10 5 -10 -6 0
-11 -6 -15 -19 -11 -10 2 -36 -5 -57 -16 -56 -31 -133 -29 -172 4 -17 14 -35
25 -41 25 -6 0 -11 4 -11 10 0 5 -13 22 -30 37 -16 14 -30 32 -30 40 0 7 -3
13 -7 13 -5 1 -39 30 -78 66 -83 78 -161 118 -227 116 -18 0 -32 7 -42 23 -15
23 -15 24 1 19 10 -3 6 1 -8 10 -20 12 -48 51 -54 76 0 3 -8 19 -17 35 -19 36
-33 151 -24 200 7 38 44 85 67 85 11 0 11 2 -1 10 -12 8 -11 10 8 10 12 0 22
5 22 10 0 6 4 10 9 10 5 0 7 -8 4 -18 -3 -13 2 -18 19 -19 17 -2 19 0 8 7 -26
16 -3 22 27 7 15 -8 72 -18 126 -22 53 -4 97 -10 97 -13 0 -4 -4 -13 -9 -21
-9 -14 -28 -13 -121 4 -23 4 -30 3 -20 -3 20 -12 159 -34 171 -27 5 4 9 15 9
25 0 10 5 22 12 26 8 5 9 -2 5 -23 -5 -27 -4 -30 13 -26 12 3 20 14 20 27 0
11 4 26 8 32 10 15 64 12 70 -5 4 -11 -2 -13 -26 -8 -22 5 -32 2 -36 -9 -14
-37 9 -36 137 6 37 12 65 25 62 30 -3 5 1 11 7 14 7 3 0 3 -17 0 -16 -3 -32
-9 -35 -12 -3 -4 -13 -8 -22 -9 -10 -2 -25 -4 -34 -5 -26 -4 -28 20 -2 27 78
21 128 41 128 52 0 10 -91 128 -110 143 -4 3 -22 17 -39 33 l-33 27 24 50 c12
27 31 51 41 54 17 4 17 7 2 42 -9 21 -27 52 -40 70 -14 18 -25 37 -25 43 0 6
-4 11 -10 11 -5 0 -10 6 -10 14 0 7 -6 19 -14 25 -8 6 -16 21 -19 31 -5 19 0
20 118 17 94 -1 121 1 118 10 -3 7 2 15 10 19 11 4 17 27 22 77 4 40 11 88 17
107 21 71 60 171 72 183 6 7 34 41 61 77 58 76 155 172 234 232 31 24 62 48
69 55 16 16 40 7 47 -18z m148 -286 c-22 -21 -62 -54 -89 -73 -26 -19 -84 -63
-127 -98 -44 -35 -89 -68 -100 -74 -20 -10 -20 -10 1 18 64 89 289 263 341
264 8 0 -4 -17 -26 -37z m312 -286 c-4 -16 1 -29 19 -47 31 -28 33 -49 6 -78
-24 -25 -52 -28 -73 -8 -10 11 -17 12 -25 4 -8 -8 -15 -8 -27 2 -18 15 -19 29
-5 65 8 22 13 24 30 15 16 -8 20 -8 20 4 0 7 -8 17 -17 20 -14 6 -12 10 12 26
42 28 67 26 60 -3z m-1816 -28 c42 -23 78 -45 81 -49 3 -4 50 -31 105 -60 55
-28 102 -56 105 -60 3 -5 17 -14 30 -20 24 -10 24 -10 -4 -5 -26 6 -139 57
-336 153 -56 28 -76 43 -78 60 -5 31 9 28 97 -19z m1761 -149 c0 -5 -2 -10 -4
-10 -3 0 -8 5 -11 10 -3 6 -1 10 4 10 6 0 11 -4 11 -10z m-1234 -95 c10 -8 14
-15 7 -15 -6 0 -14 4 -18 10 -3 5 -12 7 -19 4 -8 -3 -17 -1 -21 5 -9 16 28 13
51 -4z m143 -115 l26 -34 -37 28 c-21 16 -38 33 -38 38 0 17 23 3 49 -32z
m2499 -115 c17 -9 35 -28 41 -45 12 -36 5 -120 -15 -172 -11 -30 -11 -38 -1
-38 26 0 -19 -20 -46 -20 -24 0 -27 -3 -22 -21 5 -15 4 -19 -4 -15 -6 4 -11 2
-11 -3 0 -6 -7 -11 -15 -11 -8 0 -15 -5 -15 -11 0 -6 -7 -9 -15 -5 -9 3 -15 0
-15 -9 0 -8 -7 -15 -15 -15 -30 0 -155 -120 -155 -150 0 -10 -11 -30 -25 -44
-14 -14 -25 -34 -25 -46 0 -11 -4 -20 -10 -20 -5 0 -18 -7 -27 -16 -40 -35
-110 -74 -133 -74 -15 0 -30 -4 -35 -9 -11 -10 -73 -19 -182 -27 -56 -4 -80
-2 -110 13 -21 10 -45 16 -53 15 -23 -4 -60 35 -67 69 -4 19 -12 29 -24 29
-10 0 -20 10 -24 23 -11 38 -34 84 -48 95 -14 12 -16 100 -2 165 6 33 14 40
41 36 4 0 10 5 15 12 6 10 11 10 22 0 10 -7 16 -8 19 -2 1 6 14 12 27 14 14 2
27 9 29 15 2 7 10 12 18 12 8 0 17 7 20 15 4 9 19 15 39 15 22 0 48 12 80 37
54 41 108 55 163 42 34 -8 100 2 127 19 6 4 19 8 29 9 11 2 33 10 49 18 17 8
37 15 45 15 8 0 23 9 32 20 25 29 124 60 192 60 32 0 58 4 58 10 0 14 12 13
48 -5z m92 -75 c0 -5 -4 -10 -10 -10 -5 0 -10 5 -10 10 0 6 5 10 10 10 6 0 10
-4 10 -10z m26 -1033 c-41 -88 -141 -255 -189 -316 -62 -80 -160 -151 -312
-225 -135 -66 -222 -99 -290 -111 l-40 -7 35 24 c82 56 162 98 276 142 141 56
233 119 293 200 23 30 41 57 41 59 0 3 29 56 65 118 57 99 129 188 143 175 2
-3 -7 -29 -22 -59z m-1648 -779 c3 -44 2 -46 -19 -41 -21 6 -22 4 -17 -55 4
-40 2 -69 -7 -86 -12 -22 -11 -26 5 -31 10 -3 22 -5 26 -4 5 2 29 -3 54 -10
68 -20 360 -23 544 -6 207 19 206 19 206 -4 0 -11 5 -21 12 -23 6 -2 8 -10 4
-16 -14 -22 -158 -109 -194 -117 -10 -2 -48 -13 -87 -24 -38 -10 -97 -21 -130
-23 -33 -3 -70 -11 -83 -19 -19 -12 -24 -12 -31 0 -5 8 -34 15 -77 18 -163 10
-362 118 -468 252 -25 33 -46 62 -46 66 0 4 15 -2 33 -13 38 -24 178 -73 189
-66 4 3 5 11 1 19 -3 9 1 25 9 38 9 12 19 58 23 102 8 91 10 97 33 93 12 -2
18 -16 20 -50z m147 -42 c27 -14 95 -124 95 -153 0 -10 -21 -13 -77 -13 -106
0 -123 6 -123 40 0 39 39 128 59 133 9 3 17 5 17 6 1 0 14 -5 29 -13z m-15
-426 c0 -5 -2 -10 -4 -10 -3 0 -8 5 -11 10 -3 6 -1 10 4 10 6 0 11 -4 11 -10z
m98 -59 c17 -11 34 -21 40 -21 5 0 15 -7 22 -15 7 -8 17 -15 23 -15 7 0 7 4
-1 12 -22 22 -12 29 16 11 75 -47 145 -151 197 -293 40 -109 126 -293 151
-321 20 -22 18 -26 -14 -21 -36 5 -125 87 -185 169 -25 35 -85 129 -132 210
-92 156 -169 276 -192 299 -23 23 39 11 75 -15z m57 -1 c3 -6 -1 -7 -9 -4 -18
7 -21 14 -7 14 6 0 13 -4 16 -10z m555 -280 c25 -75 60 -200 59 -215 -1 -21
-52 124 -73 208 -26 100 -18 104 14 7z m-2027 -609 c37 -26 57 -41 105 -81 20
-17 14 -28 -18 -35 -25 -6 -29 -9 -19 -21 13 -16 18 -15 -80 -17 -54 -2 -65 1
-69 16 -2 9 -11 17 -18 17 -8 0 -14 9 -14 21 0 15 -5 19 -15 15 -17 -6 -21 29
-5 54 8 12 13 13 29 3 25 -16 51 8 32 31 -9 11 -9 15 1 19 23 9 29 8 71 -22z
m225 -160 c15 -10 60 -40 101 -67 l73 -49 -51 -3 c-34 -2 -65 3 -96 17 -39 17
-45 24 -45 49 0 16 -7 35 -15 42 -36 30 -9 40 33 11z m-190 -20 c13 -7 16 -20
14 -55 -2 -25 -8 -46 -13 -46 -5 0 -9 5 -9 10 0 6 -11 10 -24 10 -28 0 -42 16
-38 43 2 9 -2 17 -7 17 -23 0 -9 19 17 23 15 2 31 5 35 6 5 0 16 -3 25 -8z
m-55 -108 c-7 -2 -19 -2 -25 0 -7 3 -2 5 12 5 14 0 19 -2 13 -5z m521 -40 c13
-8 -16 -23 -45 -23 -27 0 -57 39 -45 59 6 9 31 -1 90 -36z m-170 31 c29 -11
14 -54 -20 -54 -2 0 -4 14 -4 30 0 32 1 33 24 24z m46 -24 c0 -5 -4 -10 -10
-10 -5 0 -10 5 -10 10 0 6 5 10 10 10 6 0 10 -4 10 -10z m261 -72 c49 -23 89
-45 89 -49 0 -4 -7 -14 -15 -23 -12 -12 -33 -14 -102 -10 -47 2 -92 9 -100 15
-7 6 -19 9 -28 6 -8 -4 -17 -2 -20 3 -4 6 1 10 9 10 10 0 16 9 16 23 0 24 33
67 51 67 6 0 51 -19 100 -42z m238 -99 c56 -24 67 -50 30 -70 -17 -9 -25 -7
-42 9 -12 11 -34 22 -48 26 -21 4 -27 11 -25 31 1 31 17 32 85 4z m-107 -50
c-5 -43 -15 -49 -63 -36 -46 11 -51 32 -10 40 16 4 35 13 43 21 20 23 33 12
30 -25z m423 -34 c55 -13 110 -25 123 -25 12 0 39 -7 60 -16 22 -9 79 -17 142
-20 170 -7 339 -20 346 -27 4 -3 -1 -13 -10 -22 -10 -10 -14 -25 -10 -40 6
-26 -26 -55 -62 -55 -29 0 -35 -9 -23 -32 13 -25 -4 -46 -41 -50 -19 -2 -25 2
-25 17 0 15 -7 19 -30 19 -19 -1 -29 -5 -27 -14 2 -9 -4 -8 -22 4 -30 19 -52
21 -59 4 -3 -8 -6 -6 -6 5 -1 9 -4 17 -8 17 -13 -1 -50 -35 -55 -50 -6 -19
-86 -14 -109 6 -20 18 -69 18 -69 0 0 -7 -10 -16 -22 -19 -16 -5 -19 -9 -11
-19 15 -18 9 -78 -8 -89 -23 -14 -69 -11 -69 5 0 8 5 18 10 21 8 5 7 11 -1 21
-9 11 -9 14 0 14 16 0 42 26 34 33 -3 4 -15 0 -27 -8 -36 -26 -78 -19 -115 20
-29 31 -30 35 -12 35 27 0 37 35 17 64 -14 22 -14 24 4 19 11 -3 20 -1 20 5 0
6 3 17 6 25 3 9 -4 25 -15 36 -20 20 -20 21 -2 33 18 11 18 14 -15 51 -30 36
-36 57 -16 57 4 0 52 -11 107 -25z m403 -297 c16 -1 37 -7 47 -14 29 -21 2
-46 -41 -38 -38 7 -45 -7 -18 -38 15 -16 15 -18 1 -24 -26 -10 -62 0 -65 19
-2 10 3 17 12 17 22 0 20 23 -4 45 -36 33 -23 74 15 49 13 -8 37 -16 53 -16z
m-98 -169 c0 -5 -9 -9 -20 -9 -13 0 -18 5 -14 14 6 15 34 11 34 -5z m1440
-149 c0 -5 -2 -10 -4 -10 -3 0 -8 5 -11 10 -3 6 -1 10 4 10 6 0 11 -4 11 -10z
m45 -30 c-10 -11 -20 -18 -23 -15 -7 6 18 35 31 35 5 0 2 -9 -8 -20z m-152 -5
c-3 -9 -8 -14 -10 -11 -3 3 -2 9 2 15 9 16 15 13 8 -4z m-33 -175 c0 -5 -7 -7
-15 -4 -8 4 -15 8 -15 10 0 2 7 4 15 4 8 0 15 -4 15 -10z"/>
<path d="M3320 7440 c-11 -7 -3 -40 10 -40 4 0 10 7 14 15 3 8 14 15 25 15 11
0 23 4 26 10 7 11 -57 11 -75 0z"/>
<path d="M4140 7340 c-12 -7 -12 -12 -2 -22 9 -9 15 -9 24 0 16 16 -2 34 -22
22z"/>
<path d="M4066 7295 c-3 -8 -1 -15 4 -15 6 0 10 7 10 15 0 8 -2 15 -4 15 -2 0
-6 -7 -10 -15z"/>
<path d="M4000 7242 c0 -4 -10 -12 -22 -17 -18 -8 -23 -18 -23 -45 0 -33 2
-35 30 -33 41 3 66 38 53 75 -9 25 -38 41 -38 20z"/>
<path d="M3413 7206 c-9 -11 -7 -15 12 -18 28 -6 50 5 41 21 -10 15 -38 13
-53 -3z"/>
<path d="M3643 7213 c-15 -6 -18 -33 -3 -33 19 0 59 23 54 31 -6 10 -31 11
-51 2z"/>
<path d="M3040 7178 c0 -20 1 -21 20 -3 11 10 20 20 20 22 0 1 -9 3 -20 3 -14
0 -20 -7 -20 -22z"/>
<path d="M4090 7168 c0 -34 11 -43 50 -43 46 1 65 12 50 30 -8 9 -22 12 -41 8
-21 -4 -30 -1 -35 11 -9 24 -24 20 -24 -6z"/>
<path d="M4065 7052 c-11 -19 -8 -82 4 -82 12 0 20 61 12 82 -6 17 -7 17 -16
0z"/>
<path d="M2828 7020 c-64 -57 -77 -73 -72 -81 7 -12 44 -12 44 0 0 5 11 12 24
15 17 4 28 18 38 51 9 25 12 45 7 45 -5 0 -23 -13 -41 -30z"/>
<path d="M4042 6948 c-14 -14 -16 -48 -2 -48 5 0 14 9 21 21 13 25 -1 45 -19
27z"/>
<path d="M4385 6760 c-3 -5 -1 -10 4 -10 6 0 11 5 11 10 0 6 -2 10 -4 10 -3 0
-8 -4 -11 -10z"/>
<path d="M4631 6971 c-8 -6 -9 -11 -3 -15 6 -3 14 -1 17 5 9 14 2 20 -14 10z"/>
<path d="M3495 5020 c3 -5 10 -10 16 -10 5 0 9 5 9 10 0 6 -7 10 -16 10 -8 0
-12 -4 -9 -10z"/>
<path d="M3330 4789 c0 -5 5 -7 10 -4 6 3 10 8 10 11 0 2 -4 4 -10 4 -5 0 -10
-5 -10 -11z"/>
<path d="M4935 5770 c-3 -5 1 -10 9 -10 9 0 16 5 16 10 0 6 -4 10 -9 10 -6 0
-13 -4 -16 -10z"/>
<path d="M4080 1720 c0 -5 5 -10 11 -10 5 0 7 5 4 10 -3 6 -8 10 -11 10 -2 0
-4 -4 -4 -10z"/>
<path d="M4160 1609 c0 -11 4 -18 10 -14 5 3 7 12 3 20 -7 21 -13 19 -13 -6z"/>
<path d="M4825 1410 c-3 -5 1 -10 10 -10 9 0 13 5 10 10 -3 6 -8 10 -10 10 -2
0 -7 -4 -10 -10z"/>
<path d="M4937 1372 c-19 -21 -14 -32 15 -32 19 0 21 5 9 33 -6 18 -7 18 -24
-1z"/>
<path d="M5105 1373 c-11 -2 -30 -6 -42 -9 -14 -2 -23 -12 -23 -22 0 -10 -12
-25 -27 -34 -16 -9 -39 -26 -52 -37 -23 -20 -24 -22 -6 -41 21 -23 38 -25 54
-6 15 18 71 26 94 14 13 -6 17 -5 17 7 0 8 -7 15 -15 15 -19 0 -19 10 1 38 10
14 22 21 31 17 17 -6 63 19 63 35 0 6 -13 10 -30 10 -16 0 -30 5 -30 10 0 10
-2 11 -35 3z"/>
<path d="M4837 1243 c-12 -11 -8 -23 8 -23 8 0 15 7 15 15 0 16 -12 20 -23 8z"/>
</g>
</svg>
